<svg width="33" height="34" viewBox="0 0 33 34" fill="none" xmlns="http://www.w3.org/2000/svg">
<path d="M2 1.6875H5.28267C6.4076 1.6875 6.97006 1.6875 7.37695 2.00519C7.78385 2.32288 7.92026 2.86855 8.1931 3.95989L8.59049 5.54946C8.91602 6.85158 9.07878 7.50264 9.44209 7.98718C9.76132 8.41294 10.1881 8.74612 10.6785 8.95256C11.2367 9.1875 11.9078 9.1875 13.25 9.1875V9.1875" stroke="#262626" stroke-width="3" stroke-linecap="round"/>
<path d="M28.25 26.0625H8.65795C7.91653 26.0625 7.54581 26.0625 7.28042 25.9577C6.73505 25.7425 6.3651 25.2292 6.33334 24.6437C6.31789 24.3588 6.43512 24.0072 6.66957 23.3038V23.3038C6.92954 22.5239 7.05953 22.1339 7.26136 21.8189C7.67238 21.1775 8.31204 20.7165 9.05055 20.5294C9.41318 20.4375 9.82423 20.4375 10.6463 20.4375H20.75" stroke="#262626" stroke-width="3" stroke-linecap="round" stroke-linejoin="round"/>
<path d="M22.6668 20.4375H14.5828C12.1552 20.4375 10.9415 20.4375 10.1023 19.7266C9.26302 19.0156 9.06348 17.8184 8.6644 15.4239L8.4983 14.4273C8.09291 11.995 7.89022 10.7788 8.56424 9.98316C9.23826 9.1875 10.4712 9.1875 12.9371 9.1875H27.1459C29.3215 9.1875 30.4093 9.1875 30.8489 9.8989C31.2886 10.6103 30.8021 11.5833 29.8292 13.5291L28.0334 17.1208C27.2265 18.7345 26.823 19.5414 26.0981 19.9895C25.3731 20.4375 24.471 20.4375 22.6668 20.4375Z" stroke="#262626" stroke-width="3" stroke-linecap="round"/>
<circle cx="26.375" cy="31.6875" r="1.875" fill="#262626"/>
<circle cx="11.375" cy="31.6875" r="1.875" fill="#262626"/>
</svg>
